<svg xmlns="http://www.w3.org/2000/svg" width="1509" height="812">
  <path fill="#F5F5F5" fill-rule="evenodd" d="M5.45.35h959.14a345.6 345.6 0 0 1 27.51 18.24c163.05 119.38 427.38-39.43 498.2 134.22 70.83 173.65-89.75 144.89-145.74 260.96-55.99 116.08 143.29 62.58 132.59 217.35-4.92 71.14-73.7 157.15-146.57 175.35-85.66 21.4-195.36-35.44-264.33-79.05-127.64-80.68-280.81-146.55-488.32-82.35-145.4 45-327.74-87.99-327.75-236.29 0-116.9 166.33-308.71-105.41-255.98C22.58 176.52-13.7 95.18 5.45.35z"/>
</svg>
