<?xml version="1.0"?>
<svg xmlns="http://www.w3.org/2000/svg" xmlns:xlink="http://www.w3.org/1999/xlink" style="margin:auto;background:#ffffff;display:block;z-index:1;position:relative" width="1280" height="615" preserveAspectRatio="xMidYMid" viewBox="0 0 1280 615">
<g transform="translate(640,307.5) scale(1,1) translate(-640,-307.5)"><path id="path0" d="M 574.1083938177222 512.8939235878719
c 0 25.11988439648568 -6.146354692757134 7.215285943671419 -13.361640636428554 7.215285943671419
S 547.3851125448651 538.0138079843575 547.3851125448651 512.8939235878719
s 6.146354692757134 -7.215285943671419 13.361640636428554 -7.215285943671419
S 574.1083938177222 487.7740391913862 574.1083938177222 512.8939235878719
z" fill="none" stroke="none"></path>
<circle cx="0" cy="0" r="6.7763497659374385" fill="#51cacc">
  <animateMotion begin="-8.530059320774638s" dur="10s" repeatCount="indefinite">
    <mpath xlink:href="#path0"></mpath>
  </animateMotion>
</circle><path id="path1" d="M 781.1215465802035 195.29024577012135
c 0 22.016224780644276 -5.38694861654062 6.323809245504207 -11.710757862044828 6.323809245504207
S 757.7000308561138 217.30647055076562 757.7000308561138 195.29024577012135
s 5.38694861654062 -6.323809245504207 11.710757862044828 -6.323809245504207
S 781.1215465802035 173.27402098947707 781.1215465802035 195.29024577012135
z" fill="none" stroke="none"></path>
<circle cx="0" cy="0" r="7.774867367918536" fill="#e0ff77">
  <animateMotion begin="-9.323772362386453s" dur="10s" repeatCount="indefinite">
    <mpath xlink:href="#path1"></mpath>
  </animateMotion>
</circle><path id="path2" d="M 993.4673827306956 74.36658777722855
c 0 37.42617371936768 -9.157468037717624 10.750071174711994 -19.90753921242962 10.750071174711994
S 953.6523043058364 111.79276149659623 953.6523043058364 74.36658777722855
s 9.157468037717624 -10.750071174711994 19.90753921242962 -10.750071174711994
S 993.4673827306956 36.94041405786086 993.4673827306956 74.36658777722855
z" fill="none" stroke="none"></path>
<circle cx="0" cy="0" r="4.112912828048525" fill="#de9dd6">
  <animateMotion begin="-4.773985914398109s" dur="10s" repeatCount="indefinite">
    <mpath xlink:href="#path2"></mpath>
  </animateMotion>
</circle><path id="path3" d="M 678.4218566848169 531.2366687518154
c 0 31.81847434493674 -7.785371382271754 9.139349013971191 -16.924720396242947 9.139349013971191
S 644.572415892331 563.0551430967521 644.572415892331 531.2366687518154
s 7.785371382271754 -9.139349013971191 16.924720396242947 -9.139349013971191
S 678.4218566848169 499.4181944068786 678.4218566848169 531.2366687518154
z" fill="none" stroke="none"></path>
<circle cx="0" cy="0" r="7.944851762159427" fill="#de9dd6">
  <animateMotion begin="-6.4965140705965325s" dur="10s" repeatCount="indefinite">
    <mpath xlink:href="#path3"></mpath>
  </animateMotion>
</circle><path id="path4" d="M 341.67760687519444 257.7320298472132
c 0 30.463804850173698 -7.453909697382925 8.750241818666913 -16.204151516049837 8.750241818666913
S 309.2693038430948 288.1958346973869 309.2693038430948 257.7320298472132
s 7.453909697382925 -8.750241818666913 16.204151516049837 -8.750241818666913
S 341.67760687519444 227.2682249970395 341.67760687519444 257.7320298472132
z" fill="none" stroke="none"></path>
<circle cx="0" cy="0" r="7.202832951265686" fill="#de9dd6">
  <animateMotion begin="-5.180067635184402s" dur="10s" repeatCount="indefinite">
    <mpath xlink:href="#path4"></mpath>
  </animateMotion>
</circle><path id="path5" d="M 333.74530836503897 529.0618868125215
c 0 32.68108034187955 -7.996434551736485 9.387118821603702 -17.383553373340185 9.387118821603702
S 298.9782016183586 561.7429671544011 298.9782016183586 529.0618868125215
s 7.996434551736485 -9.387118821603702 17.383553373340185 -9.387118821603702
S 333.74530836503897 496.3808064706419 333.74530836503897 529.0618868125215
z" fill="none" stroke="none"></path>
<circle cx="0" cy="0" r="5.771041134020774" fill="#51cacc">
  <animateMotion begin="-7.822022640268875s" dur="10s" repeatCount="indefinite">
    <mpath xlink:href="#path5"></mpath>
  </animateMotion>
</circle><path id="path6" d="M 955.6049420828367 554.0744601512291
c 0 19.22956221467191 -4.705105648270785 5.523384891448314 -10.2284905397191 5.523384891448314
S 935.1479610033984 573.304022365901 935.1479610033984 554.0744601512291
s 4.705105648270785 -5.523384891448314 10.2284905397191 -5.523384891448314
S 955.6049420828367 534.8448979365572 955.6049420828367 554.0744601512291
z" fill="none" stroke="none"></path>
<circle cx="0" cy="0" r="7.9703046296615065" fill="#e0ff77">
  <animateMotion begin="-3.3160662669022267s" dur="10s" repeatCount="indefinite">
    <mpath xlink:href="#path6"></mpath>
  </animateMotion>
</circle><path id="path7" d="M 368.9542919927455 573.9657456524386
c 0 20.195341417204993 -4.9414133254863275 5.80078955600569 -10.742202881492018 5.80078955600569
S 347.46988622976147 594.1610870696436 347.46988622976147 573.9657456524386
s 4.9414133254863275 -5.80078955600569 10.742202881492018 -5.80078955600569
S 368.9542919927455 553.7704042352336 368.9542919927455 573.9657456524386
z" fill="none" stroke="none"></path>
<circle cx="0" cy="0" r="7.784242345164998" fill="#51cacc">
  <animateMotion begin="-9.275826636153466s" dur="10s" repeatCount="indefinite">
    <mpath xlink:href="#path7"></mpath>
  </animateMotion>
</circle><path id="path8" d="M 821.1960158656724 389.99136413627
c 0 37.075605920137235 -9.071690810246345 10.649376168550058 -19.7210669787964 10.649376168550058
S 781.7538819080795 427.0669700564073 781.7538819080795 389.99136413627
s 9.071690810246345 -10.649376168550058 19.7210669787964 -10.649376168550058
S 821.1960158656724 352.91575821613276 821.1960158656724 389.99136413627
z" fill="none" stroke="none"></path>
<circle cx="0" cy="0" r="5.294591591770323" fill="#ff708e">
  <animateMotion begin="-1.1010290603609185s" dur="10s" repeatCount="indefinite">
    <mpath xlink:href="#path8"></mpath>
  </animateMotion>
</circle><path id="path9" d="M 513.5865695953853 567.1688971873407
c 0 35.123675615971514 -8.594090842205794 10.088715336502457 -18.68280617870825 10.088715336502457
S 476.2209572379688 602.2925728033122 476.2209572379688 567.1688971873407
s 8.594090842205794 -10.088715336502457 18.68280617870825 -10.088715336502457
S 513.5865695953853 532.0452215713692 513.5865695953853 567.1688971873407
z" fill="none" stroke="none"></path>
<circle cx="0" cy="0" r="4.0120826235869425" fill="#9df871">
  <animateMotion begin="-2.1717783474065833s" dur="10s" repeatCount="indefinite">
    <mpath xlink:href="#path9"></mpath>
  </animateMotion>
</circle><path id="path10" d="M 496.7747460156523 183.425627947436
c 0 25.939099929269915 -6.346801046523489 7.450592532875402 -13.797393579398891 7.450592532875402
S 469.1799588568545 209.3647278767059 469.1799588568545 183.425627947436
s 6.346801046523489 -7.450592532875402 13.797393579398891 -7.450592532875402
S 496.7747460156523 157.4865280181661 496.7747460156523 183.425627947436
z" fill="none" stroke="none"></path>
<circle cx="0" cy="0" r="7.465162915392094" fill="#de9dd6">
  <animateMotion begin="-2.5033800827607755s" dur="10s" repeatCount="indefinite">
    <mpath xlink:href="#path10"></mpath>
  </animateMotion>
</circle><path id="path11" d="M 62.254006806387466 490.48833571095463
c 0 31.506208875648156 -7.708966001488378 9.049655740877663 -16.75862174236604 9.049655740877663
S 28.73676332165539 521.9945445866028 28.73676332165539 490.48833571095463
s 7.708966001488378 -9.049655740877663 16.75862174236604 -9.049655740877663
S 62.254006806387466 458.9821268353065 62.254006806387466 490.48833571095463
z" fill="none" stroke="none"></path>
<circle cx="0" cy="0" r="6.7320844892074785" fill="#51cacc">
  <animateMotion begin="-4.076891701768033s" dur="10s" repeatCount="indefinite">
    <mpath xlink:href="#path11"></mpath>
  </animateMotion>
</circle><path id="path12" d="M 507.0062067314368 61.75039466924428
c 0 25.971049426572968 -6.354618476714662 7.4597695161433 -13.814387992857961 7.4597695161433
S 479.37743074572086 87.72144409581725 479.37743074572086 61.75039466924428
s 6.354618476714662 -7.4597695161433 13.814387992857961 -7.4597695161433
S 507.0062067314368 35.77934524267131 507.0062067314368 61.75039466924428
z" fill="none" stroke="none"></path>
<circle cx="0" cy="0" r="6.996018410845678" fill="#51cacc">
  <animateMotion begin="-9.04631086900045s" dur="10s" repeatCount="indefinite">
    <mpath xlink:href="#path12"></mpath>
  </animateMotion>
</circle><path id="path13" d="M 275.7344186326401 596.4975763856239
c 0 33.74504619804544 -8.256766622926012 9.692726035608798 -17.94949265853481 9.692726035608798
S 239.83543331557044 630.2426225836693 239.83543331557044 596.4975763856239
s 8.256766622926012 -9.692726035608798 17.94949265853481 -9.692726035608798
S 275.7344186326401 562.7525301875785 275.7344186326401 596.4975763856239
z" fill="none" stroke="none"></path>
<circle cx="0" cy="0" r="5.274238657594406" fill="#51cacc">
  <animateMotion begin="-1.7534481195115248s" dur="10s" repeatCount="indefinite">
    <mpath xlink:href="#path13"></mpath>
  </animateMotion>
</circle><path id="path14" d="M 374.75609762179124 138.59431953405564
c 0 27.94533478837616 -6.837688299283528 8.026851481767622 -14.86453978105115 8.026851481767622
S 345.027018059689 166.5396543224318 345.027018059689 138.59431953405564
s 6.837688299283528 -8.026851481767622 14.86453978105115 -8.026851481767622
S 374.75609762179124 110.64898474567948 374.75609762179124 138.59431953405564
z" fill="none" stroke="none"></path>
<circle cx="0" cy="0" r="7.0995088514591425" fill="#51cacc">
  <animateMotion begin="-7.5570945109375565s" dur="10s" repeatCount="indefinite">
    <mpath xlink:href="#path14"></mpath>
  </animateMotion>
</circle><path id="path15" d="M 622.2781255831873 322.24533776319396
c 0 23.17452197025837 -5.670361758680238 6.656511629755063 -12.326873388435303 6.656511629755063
S 597.6243788063167 345.4198597334523 597.6243788063167 322.24533776319396
s 5.670361758680238 -6.656511629755063 12.326873388435303 -6.656511629755063
S 622.2781255831873 299.0708157929356 622.2781255831873 322.24533776319396
z" fill="none" stroke="none"></path>
<circle cx="0" cy="0" r="5.707895322269049" fill="#9df871">
  <animateMotion begin="-7.023398039788773s" dur="10s" repeatCount="indefinite">
    <mpath xlink:href="#path15"></mpath>
  </animateMotion>
</circle><path id="path16" d="M 1084.6482109086483 265.08294075572917
c 0 25.285955588696353 -6.186989133404426 7.262987243561718 -13.449976376966145 7.262987243561718
S 1057.748258154716 290.36889634442554 1057.748258154716 265.08294075572917
s 6.186989133404426 -7.262987243561718 13.449976376966145 -7.262987243561718
S 1084.6482109086483 239.7969851670328 1084.6482109086483 265.08294075572917
z" fill="none" stroke="none"></path>
<circle cx="0" cy="0" r="7.893187801633078" fill="#51cacc">
  <animateMotion begin="-5.305847215457473s" dur="10s" repeatCount="indefinite">
    <mpath xlink:href="#path16"></mpath>
  </animateMotion>
</circle><path id="path17" d="M 264.2504781544966 534.3664196058851
c 0 36.359303632817436 -8.896425356965967 10.443629766873093 -19.340055123839058 10.443629766873093
S 225.5703679068185 570.7257232387025 225.5703679068185 534.3664196058851
s 8.896425356965967 -10.443629766873093 19.340055123839058 -10.443629766873093
S 264.2504781544966 498.00711597306764 264.2504781544966 534.3664196058851
z" fill="none" stroke="none"></path>
<circle cx="0" cy="0" r="6.102098913525614" fill="#ff708e">
  <animateMotion begin="-1.846687789772723s" dur="10s" repeatCount="indefinite">
    <mpath xlink:href="#path17"></mpath>
  </animateMotion>
</circle><path id="path18" d="M 834.2391358487147 182.09150205746033
c 0 22.101534321473185 -5.407822227594503 6.348313049784851 -11.756135277379354 6.348313049784851
S 810.7268652939559 204.19303637893353 810.7268652939559 182.09150205746033
s 5.407822227594503 -6.348313049784851 11.756135277379354 -6.348313049784851
S 834.2391358487147 159.98996773598714 834.2391358487147 182.09150205746033
z" fill="none" stroke="none"></path>
<circle cx="0" cy="0" r="5.638839891825605" fill="#de9dd6">
  <animateMotion begin="-5.423969500013652s" dur="10s" repeatCount="indefinite">
    <mpath xlink:href="#path18"></mpath>
  </animateMotion>
</circle><path id="path19" d="M 1022.4063420283369 241.7606806966452
c 0 33.70702260030573 -8.24746297667055 9.681804363917603 -17.929267340588154 9.681804363917603
S 986.5478073471606 275.46770329695096 986.5478073471606 241.7606806966452
s 8.24746297667055 -9.681804363917603 17.929267340588154 -9.681804363917603
S 1022.4063420283369 208.0536580963395 1022.4063420283369 241.7606806966452
z" fill="none" stroke="none"></path>
<circle cx="0" cy="0" r="5.812791328770794" fill="#9df871">
  <animateMotion begin="-0.48969582194310357s" dur="10s" repeatCount="indefinite">
    <mpath xlink:href="#path19"></mpath>
  </animateMotion>
</circle><path id="path20" d="M 579.0275031316319 334.16273076374006
c 0 21.59615240510428 -5.284164950185089 6.2031501589129325 -11.487315109098022 6.2031501589129325
S 556.0528729134357 355.75888316884436 556.0528729134357 334.16273076374006
s 5.284164950185089 -6.2031501589129325 11.487315109098022 -6.2031501589129325
S 579.0275031316319 312.56657835863575 579.0275031316319 334.16273076374006
z" fill="none" stroke="none"></path>
<circle cx="0" cy="0" r="4.477595138230857" fill="#51cacc">
  <animateMotion begin="-3.926925205811538s" dur="10s" repeatCount="indefinite">
    <mpath xlink:href="#path20"></mpath>
  </animateMotion>
</circle><path id="path21" d="M 1018.8412093576693 434.49113272000716
c 0 24.035385843036888 -5.880998663721791 6.903781040021234 -12.784779703743025 6.903781040021234
S 993.2716499501834 458.526518563044 993.2716499501834 434.49113272000716
s 5.880998663721791 -6.903781040021234 12.784779703743025 -6.903781040021234
S 1018.8412093576693 410.4557468769703 1018.8412093576693 434.49113272000716
z" fill="none" stroke="none"></path>
<circle cx="0" cy="0" r="7.3781098931408176" fill="#51cacc">
  <animateMotion begin="-8.320313288017775s" dur="10s" repeatCount="indefinite">
    <mpath xlink:href="#path21"></mpath>
  </animateMotion>
</circle><path id="path22" d="M 758.8913939912638 108.02521832883066
c 0 32.200580505234626 -7.8788654427701745 9.249102911078031 -17.127968353848207 9.249102911078031
S 724.6354572835673 140.2257988340653 724.6354572835673 108.02521832883066
s 7.8788654427701745 -9.249102911078031 17.127968353848207 -9.249102911078031
S 758.8913939912638 75.82463782359603 758.8913939912638 108.02521832883066
z" fill="none" stroke="none"></path>
<circle cx="0" cy="0" r="6.730118744184759" fill="#ff708e">
  <animateMotion begin="-3.672823764137463s" dur="10s" repeatCount="indefinite">
    <mpath xlink:href="#path22"></mpath>
  </animateMotion>
</circle><path id="path23" d="M 135.53088900504454 251.97616153984552
c 0 19.54400406218053 -4.782043547129278 5.613703294456109 -10.395746841585387 5.613703294456109
S 114.73939532187376 271.52016560202605 114.73939532187376 251.97616153984552
s 4.782043547129278 -5.613703294456109 10.395746841585387 -5.613703294456109
S 135.53088900504454 232.432157477665 135.53088900504454 251.97616153984552
z" fill="none" stroke="none"></path>
<circle cx="0" cy="0" r="7.905599884040357" fill="#ff708e">
  <animateMotion begin="-3.454127496059134s" dur="10s" repeatCount="indefinite">
    <mpath xlink:href="#path23"></mpath>
  </animateMotion>
</circle><path id="path24" d="M 914.5827797613641 8.821633280565988
c 0 22.818037670271817 -5.583136876768635 6.554117203163181 -12.137254079931816 6.554117203163181
S 890.3082716015005 31.639670950837804 890.3082716015005 8.821633280565988
s 5.583136876768635 -6.554117203163181 12.137254079931816 -6.554117203163181
S 914.5827797613641 -13.996404389705829 914.5827797613641 8.821633280565988
z" fill="none" stroke="none"></path>
<circle cx="0" cy="0" r="6.234686531964934" fill="#51cacc">
  <animateMotion begin="-5.399642280013124s" dur="10s" repeatCount="indefinite">
    <mpath xlink:href="#path24"></mpath>
  </animateMotion>
</circle><path id="path25" d="M 1127.9461737075333 307.1839549745263
c 0 19.932518466398044 -4.877105582203776 5.725297857369651 -10.602403439573427 5.725297857369651
S 1106.7413668283864 327.1164734409243 1106.7413668283864 307.1839549745263
s 4.877105582203776 -5.725297857369651 10.602403439573427 -5.725297857369651
S 1127.9461737075333 287.2514365081282 1127.9461737075333 307.1839549745263
z" fill="none" stroke="none"></path>
<circle cx="0" cy="0" r="7.909751345998689" fill="#9df871">
  <animateMotion begin="-8.981724356314402s" dur="10s" repeatCount="indefinite">
    <mpath xlink:href="#path25"></mpath>
  </animateMotion>
</circle><path id="path26" d="M 350.98144615365055 205.136514204618
c 0 23.342222802830193 -5.711394941118026 6.704681017834205 -12.41607595895223 6.704681017834205
S 326.14929423574614 228.47873700744822 326.14929423574614 205.136514204618
s 5.711394941118026 -6.704681017834205 12.41607595895223 -6.704681017834205
S 350.98144615365055 181.7942914017878 350.98144615365055 205.136514204618
z" fill="none" stroke="none"></path>
<circle cx="0" cy="0" r="5.03794337455721" fill="#e0ff77">
  <animateMotion begin="-2.4787141797176004s" dur="10s" repeatCount="indefinite">
    <mpath xlink:href="#path26"></mpath>
  </animateMotion>
</circle><path id="path27" d="M 1111.6497815624862 460.27708697416494
c 0 35.68461736221091 -8.73134254607288 10.249836901911644 -18.981179447984523 10.249836901911644
S 1073.6874226665173 495.9617043363759 1073.6874226665173 460.27708697416494
s 8.73134254607288 -10.249836901911644 18.981179447984523 -10.249836901911644
S 1111.6497815624862 424.592469611954 1111.6497815624862 460.27708697416494
z" fill="none" stroke="none"></path>
<circle cx="0" cy="0" r="7.676085824806099" fill="#e0ff77">
  <animateMotion begin="-9.767566773014753s" dur="10s" repeatCount="indefinite">
    <mpath xlink:href="#path27"></mpath>
  </animateMotion>
</circle><path id="path28" d="M 746.7141924907269 567.3659809323082
c 0 31.030795273150957 -7.592641396622041 8.913100769947615 -16.505742166569657 8.913100769947615
S 713.7027081575875 598.3967762054591 713.7027081575875 567.3659809323082
s 7.592641396622041 -8.913100769947615 16.505742166569657 -8.913100769947615
S 746.7141924907269 536.3351856591572 746.7141924907269 567.3659809323082
z" fill="none" stroke="none"></path>
<circle cx="0" cy="0" r="7.161979824764838" fill="#51cacc">
  <animateMotion begin="-7.439101648314179s" dur="10s" repeatCount="indefinite">
    <mpath xlink:href="#path28"></mpath>
  </animateMotion>
</circle><path id="path29" d="M 1220.151755810695 438.59058742895695
c 0 36.75064700118476 -8.99217958539627 10.556036904595624 -19.548216489991894 10.556036904595624
S 1181.055322830711 475.3412344301417 1181.055322830711 438.59058742895695
s 8.99217958539627 -10.556036904595624 19.548216489991894 -10.556036904595624
S 1220.151755810695 401.8399404277722 1220.151755810695 438.59058742895695
z" fill="none" stroke="none"></path>
<circle cx="0" cy="0" r="6.85462337142973" fill="#9df871">
  <animateMotion begin="-1.5782254142199004s" dur="10s" repeatCount="indefinite">
    <mpath xlink:href="#path29"></mpath>
  </animateMotion>
</circle></g>
</svg>