<svg width="107" height="150" viewBox="0 0 107 150" xmlns="http://www.w3.org/2000/svg" xmlns:xlink="http://www.w3.org/1999/xlink"><title>pdf</title><defs><rect id="b" width="105" height="148" rx="3"/><filter x="-1.9%" y="-.7%" width="103.8%" height="102.7%" filterUnits="objectBoundingBox" id="a"><feOffset dy="1" in="SourceAlpha" result="shadowOffsetOuter1"/><feGaussianBlur stdDeviation=".5" in="shadowOffsetOuter1" result="shadowBlurOuter1"/><feColorMatrix values="0 0 0 0 0 0 0 0 0 0 0 0 0 0 0 0 0 0 0.1 0" in="shadowBlurOuter1"/></filter></defs><g fill="none" fill-rule="evenodd"><g transform="translate(1)"><use fill="#000" filter="url(#a)" xlink:href="#b"/><use fill="#FFF" xlink:href="#b"/></g><path d="M62.827 69.712c-2.088-2.327-4.15-4.927-6.007-7.267a260.62 260.62 0 0 0-2.497-3.117l-.057-.07c1.147-3.268 1.803-5.943 1.95-7.952.371-5.117-.2-8.413-1.746-10.075-1.045-1.124-2.613-1.516-4.088-1.02-1.056.354-2.487 1.303-3.305 3.81-1.218 3.735-.628 10.35 2.837 15.822-1.546 4.048-3.701 8.7-6.082 13.13-4.533 1.59-8.147 3.679-10.74 6.214-3.389 3.307-4.766 6.59-3.78 9.005.607 1.496 2.01 2.388 3.754 2.388 1.214 0 2.527-.438 3.798-1.266 3.208-2.098 7.398-9.086 9.645-13.136 4.65-1.452 9.24-2.045 11.572-2.27a77.702 77.702 0 0 1 3.112-.24c4.083 4.311 7.422 6.585 10.499 7.152.619.116 1.238.173 1.843.173 2.507 0 4.58-1 5.546-2.674.729-1.265.715-2.741-.041-4.05-1.707-2.956-6.859-4.583-14.506-4.583-.551 0-1.12.009-1.707.026zm-28.092 16.35c-.607.396-1.23.633-1.67.633a.752.752 0 0 1-.172-.017c-.077-.387.199-2.062 2.912-4.713 1.274-1.246 2.886-2.382 4.793-3.388-2.407 3.874-4.573 6.643-5.863 7.485zM50.77 45.227c.283-.867.633-1.259.852-1.332l.014-.005c.211.238 1.108 1.595.706 7.138-.07.966-.305 2.188-.701 3.64-1.296-3.339-1.653-7.048-.871-9.441zm6.937 24.816a65.969 65.969 0 0 0-8.725 1.44 122.739 122.739 0 0 0 3.675-8.029c.365.457.74.927 1.119 1.407 1.27 1.602 2.698 3.402 4.177 5.16l-.246.022zm17.967 6.168c.057.1.056.14.042.167-.163.283-.901.732-2.185.732-.359 0-.74-.036-1.135-.11-1.602-.296-3.471-1.404-5.698-3.379 6.044.289 8.486 1.746 8.976 2.59z" fill="#E2514A" fill-rule="nonzero"/><path d="M41.605 129.547V134h-1.5v-11.375h4.196c1.245 0 2.22.318 2.926.953.705.636 1.058 1.477 1.058 2.524 0 1.104-.345 1.954-1.035 2.55-.69.597-1.678.895-2.965.895h-2.68zm0-1.227h2.696c.802 0 1.416-.188 1.844-.566.427-.378.64-.923.64-1.637 0-.677-.213-1.219-.64-1.625-.428-.406-1.013-.617-1.758-.633h-2.782v4.461zM50.7 134v-11.375h3.211c.99 0 1.865.219 2.625.656a4.438 4.438 0 0 1 1.762 1.867c.414.808.624 1.735.629 2.782v.726c0 1.073-.207 2.013-.621 2.82a4.369 4.369 0 0 1-1.774 1.86c-.768.432-1.663.654-2.683.664h-3.149zm1.5-10.14v8.913h1.578c1.157 0 2.056-.359 2.7-1.078.643-.718.964-1.742.964-3.07v-.664c0-1.292-.303-2.296-.91-3.012-.607-.716-1.467-1.08-2.582-1.09H52.2zm15.766 5.117H63.19V134h-1.5v-11.375h7.047v1.234h-5.547v3.891h4.774v1.227z" fill="#7B7B7B" opacity=".7"/></g></svg>