<?xml version="1.0"?>
<svg xml:space="preserve" viewBox="0 0 100 100" y="0" x="0" xmlns="http://www.w3.org/2000/svg" id="圖層_1" version="1.1" style="height: 100%; width: 100%; background: rgb(241, 242, 243);" width="47px" height="47px"><g class="ldl-scale" style="transform-origin: 50% 50%; transform: rotate(0deg) scale(0.8, 0.8);"><g class="ldl-ani"><g class="ldl-layer"><g class="ldl-ani" style="transform: scale(0.91); transform-origin: 50px 50px; animation: 1.11111s linear -0.833333s infinite normal forwards running breath-bbcc61ff-6a16-466a-ab8f-b7aca9c36414;"><path fill="#d1d1d1" d="M50 90c-22.056 0-40-17.944-40-40s17.944-40 40-40 40 17.944 40 40-17.943 40-40 40z" style="fill: rgb(160, 222, 89);"></path></g></g><g class="ldl-layer"><g class="ldl-ani" style="transform: scale(0.91); transform-origin: 50px 50px; animation: 1.11111s linear -1.11111s infinite normal forwards running breath-bbcc61ff-6a16-466a-ab8f-b7aca9c36414;"><path fill="#464646" d="M50 13.394c-20.217 0-36.606 16.389-36.606 36.606 0 20.217 16.389 36.606 36.606 36.606 20.216 0 36.605-16.388 36.605-36.606 0-20.217-16.388-36.606-36.605-36.606zm20.103 40.254L40.307 70.852c-2.613 1.509-4.751.274-4.751-2.743V33.702c0-3.018 2.138-4.252 4.751-2.744l29.796 17.203c2.613 1.509 2.613 3.979 0 5.487z" style="fill: rgb(70, 107, 90);"></path></g></g><metadata xmlns:d="https://loading.io/stock/"><d:name>go</d:name><d:tags>play,execute,run,start,go,map</d:tags><d:license>free</d:license><d:slug>jyhqix</d:slug></metadata></g></g></svg>