<svg xmlns="http://www.w3.org/2000/svg" width="291.202" height="215" viewBox="0 0 291.202 215"><defs><style>.a{fill:#ecedee;}.b{fill:#700084;}</style></defs><g transform="translate(-5638.798 8665) rotate(90)"><circle class="a" cx="2.722" cy="2.722" r="2.722" transform="translate(-8665 -5930)"/><circle class="a" cx="2.722" cy="2.722" r="2.722" transform="translate(-8665 -5777.595)"/><circle class="a" cx="2.722" cy="2.722" r="2.722" transform="translate(-8665 -5853.797)"/><circle class="a" cx="2.722" cy="2.722" r="2.722" transform="translate(-8665 -5701.393)"/><circle class="a" cx="2.722" cy="2.722" r="2.722" transform="translate(-8665 -5891.899)"/><circle class="a" cx="2.722" cy="2.722" r="2.722" transform="translate(-8665 -5739.494)"/><circle class="a" cx="2.722" cy="2.722" r="2.722" transform="translate(-8665 -5815.696)"/><circle class="a" cx="2.722" cy="2.722" r="2.722" transform="translate(-8665 -5663.291)"/><circle class="a" cx="2.722" cy="2.722" r="2.722" transform="translate(-8665 -5910.949)"/><circle class="a" cx="2.722" cy="2.722" r="2.722" transform="translate(-8665 -5758.544)"/><circle class="a" cx="2.722" cy="2.722" r="2.722" transform="translate(-8665 -5834.747)"/><circle class="a" cx="2.722" cy="2.722" r="2.722" transform="translate(-8665 -5682.342)"/><circle class="a" cx="2.722" cy="2.722" r="2.722" transform="translate(-8665 -5872.848)"/><circle class="a" cx="2.722" cy="2.722" r="2.722" transform="translate(-8665 -5720.443)"/><circle class="a" cx="2.722" cy="2.722" r="2.722" transform="translate(-8665 -5796.646)"/><circle class="a" cx="2.722" cy="2.722" r="2.722" transform="translate(-8665 -5644.241)"/><circle class="a" cx="2.722" cy="2.722" r="2.722" transform="translate(-8645.949 -5930)"/><circle class="a" cx="2.722" cy="2.722" r="2.722" transform="translate(-8645.949 -5777.595)"/><circle class="a" cx="2.722" cy="2.722" r="2.722" transform="translate(-8645.949 -5853.797)"/><circle class="a" cx="2.722" cy="2.722" r="2.722" transform="translate(-8645.949 -5701.393)"/><circle class="a" cx="2.722" cy="2.722" r="2.722" transform="translate(-8645.949 -5891.899)"/><circle class="a" cx="2.722" cy="2.722" r="2.722" transform="translate(-8645.949 -5739.494)"/><circle class="a" cx="2.722" cy="2.722" r="2.722" transform="translate(-8645.949 -5815.696)"/><circle class="a" cx="2.722" cy="2.722" r="2.722" transform="translate(-8645.949 -5663.291)"/><circle class="a" cx="2.722" cy="2.722" r="2.722" transform="translate(-8645.949 -5910.949)"/><circle class="a" cx="2.722" cy="2.722" r="2.722" transform="translate(-8645.949 -5758.544)"/><circle class="a" cx="2.722" cy="2.722" r="2.722" transform="translate(-8645.949 -5834.747)"/><circle class="a" cx="2.722" cy="2.722" r="2.722" transform="translate(-8645.949 -5682.342)"/><circle class="a" cx="2.722" cy="2.722" r="2.722" transform="translate(-8645.949 -5872.848)"/><circle class="a" cx="2.722" cy="2.722" r="2.722" transform="translate(-8645.949 -5720.443)"/><circle class="a" cx="2.722" cy="2.722" r="2.722" transform="translate(-8645.949 -5796.646)"/><circle class="a" cx="2.722" cy="2.722" r="2.722" transform="translate(-8645.949 -5644.241)"/><circle class="a" cx="2.722" cy="2.722" r="2.722" transform="translate(-8626.898 -5930)"/><circle class="a" cx="2.722" cy="2.722" r="2.722" transform="translate(-8626.898 -5777.595)"/><circle class="a" cx="2.722" cy="2.722" r="2.722" transform="translate(-8626.898 -5853.797)"/><circle class="a" cx="2.722" cy="2.722" r="2.722" transform="translate(-8626.898 -5701.393)"/><circle class="a" cx="2.722" cy="2.722" r="2.722" transform="translate(-8626.898 -5891.899)"/><circle class="a" cx="2.722" cy="2.722" r="2.722" transform="translate(-8626.898 -5739.494)"/><circle class="a" cx="2.722" cy="2.722" r="2.722" transform="translate(-8626.898 -5815.696)"/><circle class="a" cx="2.722" cy="2.722" r="2.722" transform="translate(-8626.898 -5663.291)"/><circle class="a" cx="2.722" cy="2.722" r="2.722" transform="translate(-8626.898 -5910.949)"/><circle class="a" cx="2.722" cy="2.722" r="2.722" transform="translate(-8626.898 -5758.544)"/><circle class="a" cx="2.722" cy="2.722" r="2.722" transform="translate(-8626.898 -5834.747)"/><circle class="a" cx="2.722" cy="2.722" r="2.722" transform="translate(-8626.898 -5682.342)"/><circle class="a" cx="2.722" cy="2.722" r="2.722" transform="translate(-8626.898 -5872.848)"/><circle class="a" cx="2.722" cy="2.722" r="2.722" transform="translate(-8626.898 -5720.443)"/><circle class="a" cx="2.722" cy="2.722" r="2.722" transform="translate(-8626.898 -5796.646)"/><circle class="a" cx="2.722" cy="2.722" r="2.722" transform="translate(-8626.898 -5644.241)"/><circle class="a" cx="2.722" cy="2.722" r="2.722" transform="translate(-8588.798 -5930)"/><circle class="a" cx="2.722" cy="2.722" r="2.722" transform="translate(-8588.798 -5777.595)"/><circle class="a" cx="2.722" cy="2.722" r="2.722" transform="translate(-8588.798 -5853.797)"/><circle class="a" cx="2.722" cy="2.722" r="2.722" transform="translate(-8588.798 -5701.393)"/><circle class="a" cx="2.722" cy="2.722" r="2.722" transform="translate(-8588.798 -5891.899)"/><circle class="a" cx="2.722" cy="2.722" r="2.722" transform="translate(-8588.798 -5739.494)"/><circle class="a" cx="2.722" cy="2.722" r="2.722" transform="translate(-8588.798 -5815.696)"/><circle class="a" cx="2.722" cy="2.722" r="2.722" transform="translate(-8588.798 -5663.291)"/><circle class="a" cx="2.722" cy="2.722" r="2.722" transform="translate(-8588.798 -5910.949)"/><circle class="a" cx="2.722" cy="2.722" r="2.722" transform="translate(-8588.798 -5758.544)"/><circle class="a" cx="2.722" cy="2.722" r="2.722" transform="translate(-8588.798 -5834.747)"/><circle class="a" cx="2.722" cy="2.722" r="2.722" transform="translate(-8588.798 -5682.342)"/><circle class="a" cx="2.722" cy="2.722" r="2.722" transform="translate(-8588.798 -5872.848)"/><circle class="a" cx="2.722" cy="2.722" r="2.722" transform="translate(-8588.798 -5720.443)"/><circle class="a" cx="2.722" cy="2.722" r="2.722" transform="translate(-8588.798 -5796.646)"/><circle class="a" cx="2.722" cy="2.722" r="2.722" transform="translate(-8588.798 -5644.241)"/><circle class="a" cx="2.722" cy="2.722" r="2.722" transform="translate(-8569.747 -5930)"/><circle class="a" cx="2.722" cy="2.722" r="2.722" transform="translate(-8569.747 -5777.595)"/><circle class="a" cx="2.722" cy="2.722" r="2.722" transform="translate(-8569.747 -5853.797)"/><circle class="a" cx="2.722" cy="2.722" r="2.722" transform="translate(-8569.747 -5701.393)"/><circle class="a" cx="2.722" cy="2.722" r="2.722" transform="translate(-8569.747 -5891.899)"/><circle class="a" cx="2.722" cy="2.722" r="2.722" transform="translate(-8569.747 -5739.494)"/><circle class="a" cx="2.722" cy="2.722" r="2.722" transform="translate(-8569.747 -5815.696)"/><circle class="a" cx="2.722" cy="2.722" r="2.722" transform="translate(-8569.747 -5663.291)"/><circle class="a" cx="2.722" cy="2.722" r="2.722" transform="translate(-8569.747 -5910.949)"/><circle class="a" cx="2.722" cy="2.722" r="2.722" transform="translate(-8569.747 -5758.544)"/><circle class="a" cx="2.722" cy="2.722" r="2.722" transform="translate(-8569.747 -5834.747)"/><circle class="a" cx="2.722" cy="2.722" r="2.722" transform="translate(-8569.747 -5682.342)"/><circle class="a" cx="2.722" cy="2.722" r="2.722" transform="translate(-8569.747 -5872.848)"/><circle class="a" cx="2.722" cy="2.722" r="2.722" transform="translate(-8569.747 -5720.443)"/><circle class="a" cx="2.722" cy="2.722" r="2.722" transform="translate(-8569.747 -5796.646)"/><circle class="a" cx="2.722" cy="2.722" r="2.722" transform="translate(-8569.747 -5644.241)"/><circle class="a" cx="2.722" cy="2.722" r="2.722" transform="translate(-8550.696 -5930)"/><circle class="a" cx="2.722" cy="2.722" r="2.722" transform="translate(-8550.696 -5777.595)"/><circle class="a" cx="2.722" cy="2.722" r="2.722" transform="translate(-8550.696 -5853.797)"/><circle class="a" cx="2.722" cy="2.722" r="2.722" transform="translate(-8550.696 -5701.393)"/><circle class="a" cx="2.722" cy="2.722" r="2.722" transform="translate(-8550.696 -5891.899)"/><circle class="a" cx="2.722" cy="2.722" r="2.722" transform="translate(-8550.696 -5739.494)"/><circle class="a" cx="2.722" cy="2.722" r="2.722" transform="translate(-8550.696 -5815.696)"/><circle class="a" cx="2.722" cy="2.722" r="2.722" transform="translate(-8550.696 -5663.291)"/><circle class="a" cx="2.722" cy="2.722" r="2.722" transform="translate(-8550.696 -5910.949)"/><circle class="a" cx="2.722" cy="2.722" r="2.722" transform="translate(-8550.696 -5758.544)"/><circle class="a" cx="2.722" cy="2.722" r="2.722" transform="translate(-8550.696 -5834.747)"/><circle class="a" cx="2.722" cy="2.722" r="2.722" transform="translate(-8550.696 -5682.342)"/><circle class="a" cx="2.722" cy="2.722" r="2.722" transform="translate(-8550.696 -5872.848)"/><circle class="a" cx="2.722" cy="2.722" r="2.722" transform="translate(-8550.696 -5720.443)"/><circle class="a" cx="2.722" cy="2.722" r="2.722" transform="translate(-8550.696 -5796.646)"/><circle class="a" cx="2.722" cy="2.722" r="2.722" transform="translate(-8550.696 -5644.241)"/><circle class="a" cx="2.722" cy="2.722" r="2.722" transform="translate(-8512.595 -5930)"/><circle class="a" cx="2.722" cy="2.722" r="2.722" transform="translate(-8512.595 -5777.595)"/><circle class="a" cx="2.722" cy="2.722" r="2.722" transform="translate(-8512.595 -5853.797)"/><circle class="a" cx="2.722" cy="2.722" r="2.722" transform="translate(-8512.595 -5701.393)"/><circle class="a" cx="2.722" cy="2.722" r="2.722" transform="translate(-8512.595 -5891.899)"/><circle class="a" cx="2.722" cy="2.722" r="2.722" transform="translate(-8512.595 -5739.494)"/><circle class="a" cx="2.722" cy="2.722" r="2.722" transform="translate(-8512.595 -5815.696)"/><circle class="a" cx="2.722" cy="2.722" r="2.722" transform="translate(-8512.595 -5663.291)"/><circle class="a" cx="2.722" cy="2.722" r="2.722" transform="translate(-8512.595 -5910.949)"/><circle class="a" cx="2.722" cy="2.722" r="2.722" transform="translate(-8512.595 -5758.544)"/><circle class="a" cx="2.722" cy="2.722" r="2.722" transform="translate(-8512.595 -5834.747)"/><circle class="a" cx="2.722" cy="2.722" r="2.722" transform="translate(-8512.595 -5682.342)"/><circle class="a" cx="2.722" cy="2.722" r="2.722" transform="translate(-8512.595 -5872.848)"/><circle class="a" cx="2.722" cy="2.722" r="2.722" transform="translate(-8512.595 -5720.443)"/><circle class="a" cx="2.722" cy="2.722" r="2.722" transform="translate(-8512.595 -5796.646)"/><circle class="a" cx="2.722" cy="2.722" r="2.722" transform="translate(-8512.595 -5644.241)"/><circle class="a" cx="2.722" cy="2.722" r="2.722" transform="translate(-8474.494 -5930)"/><circle class="a" cx="2.722" cy="2.722" r="2.722" transform="translate(-8474.494 -5777.595)"/><circle class="a" cx="2.722" cy="2.722" r="2.722" transform="translate(-8474.494 -5853.797)"/><circle class="a" cx="2.722" cy="2.722" r="2.722" transform="translate(-8474.494 -5701.393)"/><circle class="a" cx="2.722" cy="2.722" r="2.722" transform="translate(-8474.494 -5891.899)"/><circle class="a" cx="2.722" cy="2.722" r="2.722" transform="translate(-8474.494 -5739.494)"/><circle class="a" cx="2.722" cy="2.722" r="2.722" transform="translate(-8474.494 -5815.696)"/><circle class="a" cx="2.722" cy="2.722" r="2.722" transform="translate(-8474.494 -5663.291)"/><circle class="a" cx="2.722" cy="2.722" r="2.722" transform="translate(-8474.494 -5910.949)"/><circle class="a" cx="2.722" cy="2.722" r="2.722" transform="translate(-8474.494 -5758.544)"/><circle class="a" cx="2.722" cy="2.722" r="2.722" transform="translate(-8474.494 -5834.747)"/><circle class="a" cx="2.722" cy="2.722" r="2.722" transform="translate(-8474.494 -5682.342)"/><circle class="a" cx="2.722" cy="2.722" r="2.722" transform="translate(-8474.494 -5872.848)"/><circle class="a" cx="2.722" cy="2.722" r="2.722" transform="translate(-8474.494 -5720.443)"/><circle class="a" cx="2.722" cy="2.722" r="2.722" transform="translate(-8474.494 -5796.646)"/><circle class="a" cx="2.722" cy="2.722" r="2.722" transform="translate(-8474.494 -5644.241)"/><circle class="a" cx="2.722" cy="2.722" r="2.722" transform="translate(-8455.443 -5930)"/><circle class="a" cx="2.722" cy="2.722" r="2.722" transform="translate(-8455.443 -5777.595)"/><circle class="a" cx="2.722" cy="2.722" r="2.722" transform="translate(-8455.443 -5853.797)"/><circle class="a" cx="2.722" cy="2.722" r="2.722" transform="translate(-8455.443 -5701.393)"/><circle class="a" cx="2.722" cy="2.722" r="2.722" transform="translate(-8455.443 -5891.899)"/><circle class="a" cx="2.722" cy="2.722" r="2.722" transform="translate(-8455.443 -5739.494)"/><circle class="a" cx="2.722" cy="2.722" r="2.722" transform="translate(-8455.443 -5815.696)"/><circle class="a" cx="2.722" cy="2.722" r="2.722" transform="translate(-8455.443 -5663.291)"/><circle class="a" cx="2.722" cy="2.722" r="2.722" transform="translate(-8455.443 -5910.949)"/><circle class="a" cx="2.722" cy="2.722" r="2.722" transform="translate(-8455.443 -5758.544)"/><circle class="a" cx="2.722" cy="2.722" r="2.722" transform="translate(-8455.443 -5834.747)"/><circle class="a" cx="2.722" cy="2.722" r="2.722" transform="translate(-8455.443 -5682.342)"/><circle class="a" cx="2.722" cy="2.722" r="2.722" transform="translate(-8455.443 -5872.848)"/><circle class="a" cx="2.722" cy="2.722" r="2.722" transform="translate(-8455.443 -5720.443)"/><circle class="a" cx="2.722" cy="2.722" r="2.722" transform="translate(-8455.443 -5796.646)"/><circle class="a" cx="2.722" cy="2.722" r="2.722" transform="translate(-8455.443 -5644.241)"/><circle class="a" cx="2.722" cy="2.722" r="2.722" transform="translate(-8493.544 -5930)"/><circle class="a" cx="2.722" cy="2.722" r="2.722" transform="translate(-8493.544 -5777.595)"/><circle class="a" cx="2.722" cy="2.722" r="2.722" transform="translate(-8493.544 -5853.797)"/><circle class="a" cx="2.722" cy="2.722" r="2.722" transform="translate(-8493.544 -5701.393)"/><circle class="a" cx="2.722" cy="2.722" r="2.722" transform="translate(-8493.544 -5891.899)"/><circle class="a" cx="2.722" cy="2.722" r="2.722" transform="translate(-8493.544 -5739.494)"/><circle class="a" cx="2.722" cy="2.722" r="2.722" transform="translate(-8493.544 -5815.696)"/><circle class="a" cx="2.722" cy="2.722" r="2.722" transform="translate(-8493.544 -5663.291)"/><circle class="a" cx="2.722" cy="2.722" r="2.722" transform="translate(-8493.544 -5910.949)"/><circle class="a" cx="2.722" cy="2.722" r="2.722" transform="translate(-8493.544 -5758.544)"/><circle class="a" cx="2.722" cy="2.722" r="2.722" transform="translate(-8493.544 -5834.747)"/><circle class="a" cx="2.722" cy="2.722" r="2.722" transform="translate(-8493.544 -5682.342)"/><circle class="a" cx="2.722" cy="2.722" r="2.722" transform="translate(-8493.544 -5872.848)"/><circle class="a" cx="2.722" cy="2.722" r="2.722" transform="translate(-8493.544 -5720.443)"/><circle class="a" cx="2.722" cy="2.722" r="2.722" transform="translate(-8493.544 -5796.646)"/><circle class="a" cx="2.722" cy="2.722" r="2.722" transform="translate(-8493.544 -5644.241)"/><circle class="a" cx="2.722" cy="2.722" r="2.722" transform="translate(-8531.646 -5930)"/><circle class="a" cx="2.722" cy="2.722" r="2.722" transform="translate(-8531.646 -5777.595)"/><circle class="a" cx="2.722" cy="2.722" r="2.722" transform="translate(-8531.646 -5853.797)"/><circle class="a" cx="2.722" cy="2.722" r="2.722" transform="translate(-8531.646 -5701.393)"/><circle class="a" cx="2.722" cy="2.722" r="2.722" transform="translate(-8531.646 -5891.899)"/><circle class="a" cx="2.722" cy="2.722" r="2.722" transform="translate(-8531.646 -5739.494)"/><circle class="a" cx="2.722" cy="2.722" r="2.722" transform="translate(-8531.646 -5815.696)"/><circle class="a" cx="2.722" cy="2.722" r="2.722" transform="translate(-8531.646 -5663.291)"/><circle class="a" cx="2.722" cy="2.722" r="2.722" transform="translate(-8531.646 -5910.949)"/><circle class="a" cx="2.722" cy="2.722" r="2.722" transform="translate(-8531.646 -5758.544)"/><circle class="a" cx="2.722" cy="2.722" r="2.722" transform="translate(-8531.646 -5834.747)"/><circle class="a" cx="2.722" cy="2.722" r="2.722" transform="translate(-8531.646 -5682.342)"/><circle class="a" cx="2.722" cy="2.722" r="2.722" transform="translate(-8531.646 -5872.848)"/><circle class="a" cx="2.722" cy="2.722" r="2.722" transform="translate(-8531.646 -5720.443)"/><circle class="a" cx="2.722" cy="2.722" r="2.722" transform="translate(-8531.646 -5796.646)"/><circle class="a" cx="2.722" cy="2.722" r="2.722" transform="translate(-8531.646 -5644.241)"/><circle class="a" cx="2.722" cy="2.722" r="2.722" transform="translate(-8607.848 -5930)"/><circle class="a" cx="2.722" cy="2.722" r="2.722" transform="translate(-8607.848 -5777.595)"/><circle class="a" cx="2.722" cy="2.722" r="2.722" transform="translate(-8607.848 -5853.797)"/><circle class="a" cx="2.722" cy="2.722" r="2.722" transform="translate(-8607.848 -5701.393)"/><circle class="a" cx="2.722" cy="2.722" r="2.722" transform="translate(-8607.848 -5739.494)"/><circle class="a" cx="2.722" cy="2.722" r="2.722" transform="translate(-8607.848 -5815.696)"/><circle class="a" cx="2.722" cy="2.722" r="2.722" transform="translate(-8607.848 -5663.291)"/><circle class="a" cx="2.722" cy="2.722" r="2.722" transform="translate(-8607.848 -5910.949)"/><circle class="a" cx="2.722" cy="2.722" r="2.722" transform="translate(-8607.848 -5758.544)"/><circle class="a" cx="2.722" cy="2.722" r="2.722" transform="translate(-8607.848 -5834.747)"/><circle class="a" cx="2.722" cy="2.722" r="2.722" transform="translate(-8607.848 -5682.342)"/><circle class="a" cx="2.722" cy="2.722" r="2.722" transform="translate(-8607.848 -5872.848)"/><circle class="a" cx="2.722" cy="2.722" r="2.722" transform="translate(-8607.848 -5720.443)"/><circle class="a" cx="2.722" cy="2.722" r="2.722" transform="translate(-8607.848 -5796.646)"/><circle class="a" cx="2.722" cy="2.722" r="2.722" transform="translate(-8607.848 -5644.241)"/><rect class="b" width="8" height="8" transform="translate(-8609.102 -5892.898)"/></g></svg>