<svg width="320.3050170898437px" height="122.021240234375px" xmlns="http://www.w3.org/2000/svg" viewBox="89.84749145507814 13.9893798828125 320.3050170898437 122.021240234375" style="background:#596886" preserveAspectRatio="xMidYMid"><defs><filter id="editing-hover" x="-100%" y="-100%" width="300%" height="300%"><feFlood flood-color="#052b4a" result="flood"></feFlood><feComposite operator="in" in2="SourceAlpha" in="flood" result="shadow"></feComposite><feOffset dx="-4" dy="-4" in="SourceGraphic" result="offset-1"></feOffset><feOffset dx="4" dy="4" in="shadow" result="offset-2"></feOffset><feMerge><feMergeNode in="offset-2"></feMergeNode><feMergeNode in="offset-1"></feMergeNode></feMerge></filter></defs><g filter="url(#editing-hover)"><g transform="translate(143.86124849319458, 104.43218803405762)"><path d="M-6.98 8.83L-6.98 8.83L-6.98 8.83Q-3.71 8.45-1.66 4.22L-1.66 4.22L-1.66 4.22Q0.45-0.06 2.37-9.92L2.37-9.92L8.58-42.24L22.46-42.24L16.26-9.92L16.26-9.92Q13.89 2.62 9.98 7.55L9.98 7.55L9.98 7.55Q7.94 10.11 5.34 11.14L5.34 11.14L5.34 11.14Q2.75 12.16-0.06 12.16L-0.06 12.16L-0.06 12.16Q-2.88 12.16-4.70 11.14L-4.70 11.14L-4.70 11.14Q-6.53 10.11-6.98 8.83ZM37.82 1.28L37.82 1.28L37.82 1.28Q23.74 1.28 23.74-11.97L23.74-11.97L23.74-11.97Q23.74-21.38 28.93-27.46L28.93-27.46L28.93-27.46Q34.43-33.92 43.97-33.92L43.97-33.92L43.97-33.92Q50.88-33.92 54.40-30.72L54.40-30.72L54.40-30.72Q57.92-27.52 57.92-20.80L57.92-20.80L57.92-20.80Q57.92-10.56 52.42-4.61L52.42-4.61L52.42-4.61Q47.04 1.28 37.82 1.28ZM39.49-26.56L39.49-26.56L39.49-26.56Q38.72-24.83 38.11-22.24L38.11-22.24L38.11-22.24Q37.50-19.65 36.74-15.55L36.74-15.55L36.74-15.55Q35.97-11.46 35.97-6.40L35.97-6.40L35.97-6.40Q35.97-4.74 36.51-3.65L36.51-3.65L36.51-3.65Q37.06-2.56 38.53-2.56L38.53-2.56L38.53-2.56Q40-2.56 40.93-3.26L40.93-3.26L40.93-3.26Q41.86-3.97 42.56-5.63L42.56-5.63L42.56-5.63Q43.84-8.58 44.86-14.05L44.86-14.05L44.86-14.05Q45.89-19.52 45.98-21.89L45.98-21.89L45.98-21.89Q46.08-24.26 46.08-26.02L46.08-26.02L46.08-26.02Q46.08-27.78 45.57-28.93L45.57-28.93L45.57-28.93Q45.06-30.08 43.62-30.08L43.62-30.08L43.62-30.08Q42.18-30.08 41.22-29.18L41.22-29.18L41.22-29.18Q40.26-28.29 39.49-26.56ZM77.06-3.52L77.06-3.52L77.06-3.52Q75.07 1.28 68.74 1.28L68.74 1.28L68.74 1.28Q65.47 1.28 63.42-0.96L63.42-0.96L63.42-0.96Q61.70-2.94 61.70-4.93L61.70-4.93L61.70-4.93Q61.70-10.11 64.06-20.22L64.06-20.22L66.43-32.64L79.42-33.92L75.52-13.70L75.52-13.70Q74.43-8.96 74.43-7.30L74.43-7.30L74.43-7.30Q74.43-3.65 77.06-3.52ZM67.58-41.54L67.58-41.54L67.58-41.54Q67.58-44.03 69.66-45.38L69.66-45.38L69.66-45.38Q71.74-46.72 74.75-46.72L74.75-46.72L74.75-46.72Q77.76-46.72 79.58-45.38L79.58-45.38L79.58-45.38Q81.41-44.03 81.41-41.54L81.41-41.54L81.41-41.54Q81.41-39.04 79.39-37.76L79.39-37.76L79.39-37.76Q77.38-36.48 74.37-36.48L74.37-36.48L74.37-36.48Q71.36-36.48 69.47-37.76L69.47-37.76L69.47-37.76Q67.58-39.04 67.58-41.54ZM109.57 1.28L109.57 1.28L109.57 1.28Q101.82 1.28 101.82-4.74L101.82-4.74L101.82-4.74Q101.89-6.40 102.40-9.22L102.40-9.22L103.55-15.10L103.55-15.10Q105.28-23.42 105.28-25.28L105.28-25.28L105.28-25.28Q105.28-28.99 103.10-28.99L103.10-28.99L103.10-28.99Q99.46-28.99 97.54-19.46L97.54-19.46L93.76 0L80.90 1.28L87.55-32.70L98.05-33.92L97.02-27.65L97.02-27.65Q100.03-33.92 109.25-33.92L109.25-33.92L109.25-33.92Q113.73-33.92 115.62-32.03L115.62-32.03L115.62-32.03Q117.50-30.14 117.50-25.92L117.50-25.92L117.50-25.92Q117.50-21.95 115.46-12.67L115.46-12.67L115.46-12.67Q114.50-8.51 114.50-6.94L114.50-6.94L114.50-6.94Q114.50-5.38 115.36-4.48L115.36-4.48L115.36-4.48Q116.22-3.58 117.50-3.46L117.50-3.46L117.50-3.46Q116.86-1.28 114.66 0L114.66 0L114.66 0Q112.45 1.28 109.57 1.28ZM128.06 0L120.70 0L132.29-42.24L145.66-42.24L148.61-18.11L160.51-42.24L171.71-42.24L172.86-10.62L172.86-10.62Q173.12-4.35 176.19-2.43L176.19-2.43L176.19-2.43Q175.49-1.15 173.44 0.06L173.44 0.06L173.44 0.06Q171.39 1.28 168.67 1.28L168.67 1.28L168.67 1.28Q165.95 1.28 164.35 0.51L164.35 0.51L164.35 0.51Q162.75-0.26 161.86-1.54L161.86-1.54L161.86-1.54Q160.26-3.84 160.26-8.26L160.26-8.26L160.26-28.03L147.65 0L139.71 0L135.23-28.74L128.06 0ZM206.27-9.86L206.27-9.86L206.27-9.86Q207.49-8.32 207.49-5.82L207.49-5.82L207.49-5.82Q207.49-2.37 204.93-0.54L204.93-0.54L204.93-0.54Q202.37 1.28 198.34 1.28L198.34 1.28L198.34 1.28Q196.03 1.28 192.51 0.77L192.51 0.77L192.51 0.77Q185.60-0.32 183.49-0.32L183.49-0.32L183.49-0.32Q181.38-0.32 180.54-0.22L180.54-0.22L180.54-0.22Q179.71-0.13 178.37 0L178.37 0L186.24-42.24L213.82-42.24L213.82-42.24Q213.82-38.34 211.94-36.29L211.94-36.29L211.94-36.29Q210.05-34.24 206.34-34.24L206.34-34.24L206.34-34.24Q202.62-34.24 198.85-35.97L198.85-35.97L196.86-24.77L208.26-24.77L208.26-24.77Q208.26-21.38 206.59-19.49L206.59-19.49L206.59-19.49Q204.93-17.60 202.14-17.60L202.14-17.60L202.14-17.60Q199.36-17.60 197.63-18.24L197.63-18.24L197.63-18.24Q195.90-18.88 195.71-19.07L195.71-19.07L193.41-6.98L193.41-6.98Q194.94-6.78 197.82-6.78L197.82-6.78L197.82-6.78Q202.75-6.78 206.27-9.86Z" fill="#ffd5af"></path></g></g><style>text {
  font-size: 64px;
  font-family: Arial Black;
  dominant-baseline: central;
  text-anchor: middle;
}</style></svg>